<?xml version="1.0" standalone="no"?>
<!DOCTYPE svg PUBLIC "-//W3C//DTD SVG 20010904//EN"
 "http://www.w3.org/TR/2001/REC-SVG-20010904/DTD/svg10.dtd">
<svg version="1.0" xmlns="http://www.w3.org/2000/svg"
 width="2367.000000pt" height="521.000000pt" viewBox="0 0 2367.000000 521.000000"
 preserveAspectRatio="xMidYMid meet">
<g transform="translate(0.000000,521.000000) scale(0.100000,-0.100000)"
fill="none" stroke="white" stroke-width="30px">
<path stroke="white" stroke-width="30px" class="sogetiOutline" d="M20 2600 l0 -2580 11805 0 11805 0 0 2580 0 2580 -11805 0 -11805 0
0 -2580z m7820 0 l0 -2440 -3840 0 -3840 0 0 2440 0 2440 3840 0 3840 0 0
-2440z m3350 1285 c133 -16 285 -47 382 -76 l68 -20 0 -270 0 -270 -127 3
-128 3 -7 67 c-19 195 -107 340 -235 388 -170 63 -390 39 -518 -58 -130 -98
-175 -313 -96 -458 62 -114 166 -174 414 -240 198 -52 403 -120 488 -162 236
-117 329 -279 329 -570 0 -223 -56 -370 -195 -508 -68 -68 -99 -90 -186 -133
-192 -95 -368 -126 -683 -118 -230 5 -345 21 -578 79 l-128 32 0 303 0 303
135 0 c153 0 138 11 150 -105 33 -327 179 -465 490 -465 165 0 262 32 358 119
163 150 182 432 38 580 -75 77 -136 102 -476 200 -307 88 -464 171 -568 299
-41 50 -92 164 -107 237 -16 77 -16 234 0 310 16 80 67 188 119 252 106 132
312 237 531 273 41 6 82 13 90 15 47 9 342 3 440 -10z m2150 -376 c319 -39
544 -179 660 -409 39 -77 77 -204 97 -318 22 -133 22 -451 0 -584 -69 -403
-260 -618 -630 -706 -105 -25 -128 -26 -352 -27 -254 0 -327 9 -470 57 -303
103 -470 323 -526 693 -20 130 -17 464 5 582 33 184 99 339 187 444 107 128
302 229 500 258 40 6 85 13 99 15 57 8 352 5 430 -5z m2510 -4 c124 -14 250
-35 349 -56 l51 -11 0 -249 0 -249 -110 0 -110 0 0 28 c-1 44 -37 197 -61 252
-29 67 -92 122 -166 145 -38 11 -107 19 -199 22 -120 5 -152 2 -223 -15 -186
-48 -301 -163 -372 -372 -49 -149 -63 -258 -63 -525 -1 -259 8 -343 51 -480
39 -124 79 -193 152 -265 110 -108 215 -146 391 -138 115 6 195 28 262 75 66
45 68 55 68 306 0 211 -1 226 -21 250 -27 36 -84 49 -211 51 l-108 1 0 63 0
62 490 0 490 0 0 -65 0 -65 -53 0 c-66 0 -116 -26 -139 -71 -16 -30 -18 -68
-18 -324 l0 -291 -107 -12 c-60 -6 -182 -30 -273 -52 -213 -52 -325 -64 -530
-57 -220 7 -344 33 -485 104 -224 113 -357 308 -411 605 -23 124 -24 441 -1
584 21 130 66 269 119 364 48 88 165 209 250 258 107 63 270 113 424 131 119
14 431 12 564 -4z m2460 -260 l0 -245 -110 0 c-60 0 -110 2 -110 4 0 31 -24
172 -36 207 -36 111 -93 129 -426 129 l-238 0 0 -360 0 -360 108 0 c132 0 172
11 211 55 33 38 61 118 61 177 l0 38 85 0 85 0 0 -340 0 -340 -85 0 -85 0 0
33 c0 51 -24 132 -51 171 -35 51 -84 68 -216 74 l-113 5 0 -438 0 -438 233 6
c263 5 315 15 371 72 39 38 61 97 76 205 6 41 13 90 16 108 l5 32 109 0 110 0
0 -280 0 -280 -790 0 -790 0 0 64 0 63 74 6 c79 6 129 25 146 56 14 28 14
1605 -1 1633 -15 28 -66 47 -148 54 l-71 7 0 63 0 64 790 0 790 0 0 -245z
m2070 -25 l0 -270 -110 0 c-126 0 -109 -17 -135 137 -19 116 -38 165 -80 202
-44 38 -108 51 -255 51 l-120 0 0 -819 c0 -498 4 -830 10 -845 15 -41 62 -58
177 -64 l103 -5 0 -63 0 -64 -510 0 -510 0 0 65 0 65 75 0 c101 0 167 16 196
46 l24 26 3 830 2 830 -147 -4 c-250 -6 -280 -32 -320 -285 l-16 -103 -108 0
-109 0 0 270 0 270 915 0 915 0 0 -270z m1180 206 l0 -63 -91 -7 c-51 -4 -106
-13 -123 -20 -65 -27 -61 27 -64 -830 -2 -553 0 -792 8 -819 15 -51 56 -68
178 -75 l92 -5 0 -63 0 -64 -495 0 -495 0 0 64 0 63 99 6 c103 5 152 22 171
56 7 13 10 287 10 811 0 870 2 837 -61 859 -17 6 -74 14 -125 17 l-94 7 0 63
0 64 495 0 495 0 0 -64z"/>
<path stroke="white" stroke-width="30px" class="sogetiSpade" d="M3972 4724 c-127 -214 -252 -383 -363 -489 -226 -216 -427 -292
-1199 -450 -473 -97 -663 -143 -881 -215 -552 -181 -880 -488 -980 -915 -26
-107 -35 -306 -20 -420 62 -461 372 -833 853 -1024 266 -105 565 -149 838
-123 393 37 636 138 1060 441 168 120 156 113 169 98 8 -10 -5 -40 -56 -123
-266 -438 -616 -738 -1032 -886 -101 -36 -121 -51 -121 -90 l0 -28 1760 0
c1401 0 1760 3 1761 13 2 23 -3 52 -10 60 -4 4 -59 27 -122 51 -392 149 -700
403 -961 793 -75 111 -113 186 -105 207 5 14 21 6 94 -47 419 -302 638 -409
963 -469 170 -32 490 -32 645 0 128 26 267 67 378 111 432 173 731 510 818
923 28 132 30 365 5 477 -70 313 -225 536 -503 722 -282 188 -563 279 -1363
444 -672 138 -880 204 -1075 343 -161 114 -313 296 -474 570 -24 39 -45 72
-47 72 -3 0 -17 -21 -32 -46z"/>
<path stroke="white" stroke-width="30px" class="sogetiDot" d="M12960 3374 c-162 -43 -266 -149 -323 -329 -45 -140 -52 -216 -52
-560 0 -305 2 -338 23 -433 68 -311 203 -445 463 -459 309 -18 479 136 545
492 27 142 27 674 1 812 -54 288 -159 425 -364 478 -72 19 -221 18 -293 -1z"/>
</g>
</svg>
